<?xml version="1.0" encoding="UTF-8"?>
<svg xmlns="http://www.w3.org/2000/svg" xmlns:xlink="http://www.w3.org/1999/xlink" width="24pt" height="24pt" viewBox="0 0 24 24" version="1.1">
<g id="surface2">
<path style=" stroke:none;fill-rule:nonzero;fill:rgb(12.54902%,52.156863%,87.843137%);fill-opacity:1;" d="M 18.050781 14.691406 L 18.050781 9.3125 C 18.050781 8.816406 17.785156 8.355469 17.355469 8.105469 L 12.695312 5.414062 C 12.265625 5.164062 11.734375 5.164062 11.300781 5.414062 L 6.640625 8.105469 C 6.210938 8.355469 5.945312 8.8125 5.945312 9.3125 L 5.945312 14.691406 C 5.945312 15.1875 6.210938 15.648438 6.640625 15.898438 L 11.300781 18.589844 C 11.730469 18.839844 12.261719 18.839844 12.695312 18.589844 L 17.355469 15.898438 C 17.785156 15.648438 18.050781 15.1875 18.050781 14.691406 Z M 18.050781 14.691406 "/>
<path style=" stroke:none;fill-rule:nonzero;fill:rgb(100%,100%,100%);fill-opacity:1;" d="M 13.363281 7.867188 L 10.636719 7.867188 L 9.964844 8.84375 L 8.824219 8.84375 L 7.382812 10.847656 L 7.382812 13.148438 L 8.824219 15.152344 L 9.964844 15.152344 L 10.636719 16.128906 L 13.363281 16.128906 L 14.019531 15.152344 L 15.257812 15.152344 L 16.617188 13.128906 L 16.617188 10.871094 L 15.257812 8.847656 L 14.019531 8.847656 Z M 9.125 9.4375 L 9.960938 9.4375 L 13.507812 14.855469 L 13.046875 15.539062 L 10.945312 15.539062 L 10.472656 14.851562 L 11.132812 13.84375 C 11.167969 13.648438 10.933594 13.425781 10.632812 13.527344 L 9.957031 14.558594 L 9.125 14.5625 L 7.96875 12.960938 L 7.96875 11.042969 Z M 13.050781 8.460938 L 13.511719 9.144531 L 12.851562 10.152344 C 12.839844 10.152344 12.816406 10.761719 13.351562 10.46875 L 14.027344 9.4375 L 14.949219 9.4375 L 16.035156 11.050781 L 16.035156 12.949219 L 14.949219 14.5625 L 14.027344 14.5625 L 10.480469 9.148438 L 10.953125 8.460938 Z M 13.050781 8.460938 "/>
<path style=" stroke:none;fill-rule:nonzero;fill:rgb(98.823529%,60%,33.72549%);fill-opacity:1;" d="M 13.421875 10.761719 C 13.421875 11.574219 12.203125 11.574219 12.203125 10.761719 C 12.203125 9.945312 13.421875 9.945312 13.421875 10.761719 "/>
<path style=" stroke:none;fill-rule:nonzero;fill:rgb(98.823529%,60%,33.72549%);fill-opacity:1;" d="M 11.78125 13.238281 C 11.78125 14.054688 10.5625 14.054688 10.5625 13.238281 C 10.5625 12.425781 11.78125 12.425781 11.78125 13.238281 "/>
</g>
</svg>
